<svg width="48" height="28" viewBox="0 0 48 28" fill="none" xmlns="http://www.w3.org/2000/svg">
<path d="M9 5L11.0206 11.2188H17.5595L12.2694 15.0623L14.2901 21.2812L9 17.4377L3.70993 21.2812L5.73056 15.0623L0.440492 11.2188H6.97937L9 5Z" fill="#FEA31B"/>
<path d="M24.64 17.424V16.32L30.256 8.544H32V16.16H33.6V17.424H32V20H30.56V17.424H24.64ZM30.624 10.064L26.32 16.16H30.624V10.064ZM35.7585 20.096C35.4812 20.096 35.2465 20 35.0545 19.808C34.8625 19.616 34.7665 19.3813 34.7665 19.104C34.7665 18.8267 34.8625 18.592 35.0545 18.4C35.2465 18.208 35.4812 18.112 35.7585 18.112C36.0252 18.112 36.2492 18.208 36.4305 18.4C36.6225 18.592 36.7185 18.8267 36.7185 19.104C36.7185 19.3813 36.6225 19.616 36.4305 19.808C36.2492 20 36.0252 20.096 35.7585 20.096ZM45.7899 9.696H40.1739V13.344C40.4192 13.0027 40.7819 12.7253 41.2619 12.512C41.7419 12.288 42.2592 12.176 42.8139 12.176C43.6992 12.176 44.4192 12.3627 44.9739 12.736C45.5285 13.0987 45.9232 13.5733 46.1579 14.16C46.4032 14.736 46.5259 15.3493 46.5259 16C46.5259 16.768 46.3819 17.456 46.0939 18.064C45.8059 18.672 45.3632 19.152 44.7659 19.504C44.1792 19.856 43.4485 20.032 42.5739 20.032C41.4539 20.032 40.5472 19.744 39.8539 19.168C39.1605 18.592 38.7392 17.824 38.5899 16.864H40.0139C40.1525 17.472 40.4459 17.9467 40.8939 18.288C41.3419 18.6293 41.9072 18.8 42.5899 18.8C43.4325 18.8 44.0672 18.5493 44.4939 18.048C44.9205 17.536 45.1339 16.864 45.1339 16.032C45.1339 15.2 44.9205 14.56 44.4939 14.112C44.0672 13.6533 43.4379 13.424 42.6059 13.424C42.0405 13.424 41.5445 13.5627 41.1179 13.84C40.7019 14.1067 40.3979 14.4747 40.2059 14.944H38.8299V8.416H45.7899V9.696Z" fill="#FEA31B"/>
</svg>
